<svg aria-hidden="true" style="position: absolute; width: 0; height: 0; overflow: hidden;" version="1.1" xmlns="http://www.w3.org/2000/svg" xmlns:xlink="http://www.w3.org/1999/xlink">
<defs>
<symbol id="icon-light" viewBox="0 0 32 32">
<path d="M16 8c-4.418 0-8 3.582-8 8s3.582 8 8 8v0c4.418 0 8-3.582 8-8s-3.582-8-8-8v0zM16 21v-10c2.76 0.004 4.996 2.24 5 5v0c-0.004 2.76-2.24 4.996-5 5h-0zM16 26c1.104 0 2 0.896 2 2v2c0 1.105-0.895 2-2 2s-2-0.895-2-2v0-2c0-1.104 0.896-2 2-2zM16 6c-1.104 0-2-0.896-2-2v-2c0-1.105 0.895-2 2-2s2 0.895 2 2v0 2c0 1.104-0.896 2-2 2zM30 14c1.105 0 2 0.895 2 2s-0.895 2-2 2v0h-2c-1.105 0-2-0.895-2-2s0.895-2 2-2v0h2zM6 16c0 1.104-0.896 2-2 2h-2c-1.105 0-2-0.895-2-2s0.895-2 2-2v0h2c1.104 0 2 0.896 2 2zM25.899 23.072l1.414 1.413c0.362 0.362 0.586 0.862 0.586 1.414 0 1.105-0.896 2-2 2-0.552 0-1.052-0.224-1.414-0.586v0l-1.414-1.414c-0.362-0.362-0.586-0.862-0.586-1.414 0-1.105 0.896-2 2-2 0.552 0 1.052 0.224 1.414 0.586v0zM6.101 8.928l-1.414-1.413c-0.362-0.362-0.586-0.862-0.586-1.414 0-1.105 0.896-2 2-2 0.552 0 1.052 0.224 1.414 0.586l1.414 1.414c0.376 0.364 0.61 0.874 0.61 1.438 0 1.105-0.895 2-2 2-0.565 0-1.075-0.234-1.438-0.61l-0.001-0.001zM25.899 8.928c-0.359 0.348-0.85 0.562-1.39 0.562-1.105 0-2-0.895-2-2 0-0.54 0.214-1.030 0.562-1.39l1.414-1.414c0.362-0.362 0.862-0.586 1.414-0.586 1.105 0 2 0.896 2 2 0 0.552-0.224 1.052-0.586 1.414l-1.414 1.414zM6.101 23.072c0.359-0.348 0.85-0.562 1.39-0.562 1.105 0 2 0.895 2 2 0 0.54-0.214 1.030-0.562 1.39l-1.414 1.414c-0.362 0.362-0.862 0.586-1.414 0.586-1.105 0-2-0.896-2-2 0-0.552 0.224-1.052 0.586-1.414l1.414-1.414z"></path>
</symbol>
<symbol id="icon-dark" viewBox="0 0 32 32">
<path d="M30.932 19.84c-1.714 6.674-7.677 11.527-14.773 11.527-8.411 0-15.23-6.819-15.23-15.23 0-8.17 6.433-14.837 14.51-15.213l0.034-0.001c-0.449 1.234-0.709 2.658-0.709 4.142 0 6.883 5.58 12.463 12.463 12.463 1.485 0 2.909-0.26 4.229-0.736l-0.087 0.027c-0.047 1.036-0.197 2.048-0.438 3.020z"></path>
</symbol>
<symbol id="icon-array-legend" viewBox="0 0 49 32">
<path d="M48.758 26.043l-5.082 5.051c-0.352 0.355-0.839 0.574-1.378 0.574s-1.026-0.22-1.378-0.574l-16.254-16.256-16.254 16.256c-0.352 0.354-0.839 0.574-1.377 0.574s-1.026-0.219-1.377-0.574l-0-0-5.082-5.051c-0.355-0.357-0.574-0.849-0.574-1.393s0.219-1.036 0.574-1.393l-0 0 22.713-22.683c0.352-0.355 0.839-0.574 1.378-0.574s1.026 0.22 1.378 0.574l0 0 22.715 22.683c0.765 0.765 0.765 2.021 0 2.786z"></path>
</symbol>
</defs>
</svg>
